/* XPM */
static char *_146a052a5ef44e1b0e056c5b9955113vgVq38skWmMMurME[] = {
/* columns rows colors chars-per-pixel */
"30 33 143 2 ",
"   c None",
".  c black",
"X  c #010000",
"o  c #010101",
"O  c #030000",
"+  c gray1",
"@  c #050000",
"#  c #060000",
"$  c #150000",
"%  c gray10",
"&  c #280203",
"*  c gray16",
"=  c gray17",
"-  c #2C2C2C",
";  c #2F2F2F",
":  c #393939",
">  c #3A3A3A",
",  c #400000",
"<  c #460000",
"1  c #470000",
"2  c #480000",
"3  c #4F0101",
"4  c #490504",
"5  c #430D0E",
"6  c #4E0E0F",
"7  c #500000",
"8  c #510000",
"9  c #500101",
"0  c #590000",
"q  c #580001",
"w  c #5A0404",
"e  c #5C0505",
"r  c #5E0505",
"t  c #481110",
"y  c #481515",
"u  c #491515",
"i  c #481516",
"p  c #640203",
"a  c #630304",
"s  c #690001",
"d  c #6B0000",
"f  c #6A0001",
"g  c #750000",
"h  c #7E0001",
"j  c #7F0001",
"k  c #7C0404",
"l  c #4A2020",
"z  c gray27",
"x  c #474444",
"c  c #4B4B4B",
"v  c gray30",
"b  c gray33",
"n  c #565656",
"m  c gray35",
"M  c #675D5D",
"N  c gray38",
"B  c #646464",
"V  c #6D6060",
"C  c #6A6A6A",
"Z  c gray43",
"A  c #6F6F6F",
"S  c #746767",
"D  c #727272",
"F  c #777777",
"G  c #7E7E7E",
"H  c gray50",
"J  c #810001",
"K  c #820000",
"L  c #840000",
"P  c #8D0000",
"I  c #8C0001",
"U  c #8D0001",
"Y  c #910302",
"T  c #910303",
"R  c #970202",
"E  c #980000",
"W  c #990202",
"Q  c #A30000",
"!  c #A70100",
"~  c #A70101",
"^  c #A70202",
"/  c #A90000",
"(  c #AA0000",
")  c #AD0000",
"_  c #B10000",
"`  c #B20000",
"'  c #B10201",
"]  c #B00303",
"[  c #B50000",
"{  c #BF0000",
"}  c #BB0404",
"|  c #BB0405",
" . c #C20000",
".. c #C10201",
"X. c #C50000",
"o. c #C60000",
"O. c #C40201",
"+. c #C40202",
"@. c #C70202",
"#. c #CA0100",
"$. c #CF0202",
"%. c #CE0302",
"&. c #D10000",
"*. c #D10101",
"=. c #D30000",
"-. c #D00202",
";. c #D40000",
":. c #C04645",
">. c #DC4141",
",. c #E45352",
"<. c #E26667",
"1. c #808080",
"2. c #848484",
"3. c #989898",
"4. c #9B9B9B",
"5. c #9E9A9A",
"6. c #9D9D9D",
"7. c #A4A4A4",
"8. c #A9A9A9",
"9. c #B6B6B6",
"0. c #BABAB9",
"q. c gray73",
"w. c #BBBBBB",
"e. c gray74",
"r. c #DC8686",
"t. c #DC8786",
"y. c #DD8786",
"u. c #E68081",
"i. c #E68181",
"p. c #E48282",
"a. c #FF9D9E",
"s. c gray76",
"d. c #CBCBCB",
"f. c #CDCDCD",
"g. c LightGray",
"h. c #DFDFDF",
"j. c #ECC3C3",
"k. c #F6C9CA",
"l. c gray91",
"z. c gray92",
"x. c gray93",
"c. c gray96",
"v. c #FEFEFE",
/* pixels */
"                                                            ",
"                                                            ",
"                                                            ",
"                                                            ",
"                      O O O O O O O O                       ",
"                  * i d d p d d p d d i *                   ",
"              S $ $ 3 U I I U U U U U 9 $ $                 ",
"          ; O 2 h h ~ =.=.=.;.;.;.;.;.( h h 9 # *           ",
"        ; t e T | } #.=.;.;.;.;.;.;.;.#.} } E e 6 *         ",
"        O e K ) %.;.;.;.;.;.;.;.;.;.;.;.;.;.[ L a #         ",
"      S 2 T ) :.r.;.;.;.;.;.;.;.;.;.;.;.;.;.+._ E 2 V       ",
"      $ h | %.t.v.;.;.;.;.;.;.;.;.;.;.;.;.;.;.;...h $       ",
"    * $ h k.v.v.v.v.i.=.;.;.;.;.;.;.;.;.;.;.;.;...h $       ",
"    i 9 ~ <.p.j.v.i.>.=.;.;._ ( ( ( ( { ;.;.;.;.#.~ 3 i     ",
"  O p U ;.=.%.t.v.=.=.;.;.;.U h K h h ( ;.;.;.;.;.=.U d #   ",
"  O d U ;.;.=.,.a.;.;.;.+.] w 4 4 4 4 k ] ;.;.;.;.;.U d #   ",
"  O d U ;.;.=.=.;.;.=.=.) h $ O O O O & h =.=.=.=.=.U d #   ",
"  O d K U U U I U ;._ I w $ 4.q.w.w.0.V $ I ~ =.+.U h d #   ",
"  O q p d d d g h +.Q h 4 O q.h.h.h.h.A O h E { ] d d q #   ",
"  O O O O O O < h h h h 4 O q.h.h.h.h.A O h h h a i O O O   ",
"  O : z z z z l < < < < & O q.h.h.h.h.A O < < < 5 O z > O   ",
"  O G 3.3.3.3.c O O O O O O q.h.h.h.h.A O O O O % 3.3.H O   ",
"    b m 3.s.d.7.H H H H H H D A A A A F H H H H 2.3.m b O   ",
"    * % 3.z.v.v.v.v.v.v.v.v.= O # O O H v.v.v.v.x.3.A *     ",
"    * % 4.z.v.v.v.v.v.v.v.v.v.v.v.v.v.v.v.v.v.v.x.3.A *     ",
"      B n w.g.l.v.v.v.v.v.v.v.v.v.v.v.v.v.v.x.g.e.n n O     ",
"        O G 4.f.v.v.v.v.v.v.v.v.v.v.v.v.v.v.g.6.H O O       ",
"        * A H 9.x.x.c.v.v.v.v.v.v.v.v.c.x.x.e.H n O         ",
"          ; O c 3.3.d.v.v.v.v.v.v.v.v.d.3.3.n O O           ",
"              A % % N 8.8.8.8.8.8.8.8.N A A C O             ",
"                = * b H H H H H H H H b A * O               ",
"                    O O O O O O O O O O O                   ",
"                                            c.              "
};
