/* XPM */
static char *_6260def5c41496597935de44b4853186jRhBVrZdpwpQusd[] = {
/* columns rows colors chars-per-pixel */
"30 30 77 1 ",
"  c None",
". c #06201F",
"X c #16383A",
"o c #242527",
"O c gray24",
"+ c #093F40",
"@ c #333D41",
"# c #343D41",
"$ c #343A4B",
"% c #401B40",
"& c #4A284C",
"* c #443447",
"= c #543458",
"- c #5E3E61",
"; c #69366C",
": c #2C4647",
"> c #3C5655",
", c #444D4F",
"< c #474C4F",
"1 c #4D4053",
"2 c #544456",
"3 c #43555C",
"4 c #475E5D",
"5 c #575C5D",
"6 c #67486C",
"7 c #68586A",
"8 c #734278",
"9 c #785A7F",
"0 c #53656A",
"q c #536E75",
"w c #616465",
"e c #676C6C",
"r c #6B7178",
"t c #687378",
"y c #717474",
"u c #7C7C7C",
"i c #7D4C82",
"p c #637E84",
"a c #87578E",
"s c #944F98",
"d c #9D5CA4",
"f c #A766AD",
"g c #B171B9",
"h c #BB7CC4",
"j c #6E868C",
"k c #7B8185",
"l c #818B8D",
"z c #85898D",
"x c #928294",
"c c #9C8A9C",
"v c #8B9193",
"b c #95999B",
"n c #9FA8AE",
"m c #A0A1A3",
"M c #A5A9A9",
"N c #B0A3BA",
"B c #A6B1B6",
"V c #AFB8BB",
"C c #B0B1B1",
"Z c #B9B9B9",
"A c #C585CD",
"S c #C697CE",
"D c #CF90D8",
"F c #D1B0D4",
"G c #D9ABE0",
"H c #B9C0C3",
"J c #C3C8CB",
"K c #D0C3D6",
"L c #C8D0D1",
"P c #D3D8D9",
"I c #E4D5E8",
"U c #EEDDF0",
"Y c #D8E0E0",
"T c #DEE0E1",
"R c #E3E8E8",
"E c #EDF0F0",
"W c #F8F8F8",
/* pixels */
"                              ",
"         +        +           ",
"        4u4      4u4          ",
"        yEC>    >CEy          ",
"        >MRbwuy5bRM>          ",
"         yETTWEPRP5           ",
"         uWWWWWWWPw           ",
"         wTWWWWWWRw           ",
"         5HTWWWWTZ5           ",
"   +     evbEWWEbve     +     ",
"   w    .yx2MEEM2xy.    y     ",
"  wJw. :wucxMEEMxcy5: .uP5    ",
" X3JOOOobCubLEELbuMvoOOOJ3X   ",
" #qJ,bwokPZw5yy55CPkowb,Jq:   ",
" wBp055bzbECe55emPzzb550jB5   ",
" wHt@oyC4>CEYVVYEn27Cyo#zL5   ",
"  ,<kkw4  4mHVVHm7887wzz55    ",
"   :vv:   :tnLLnt=&;81zz:     ",
"    >>   >kMLEELnto%s8*:      ",
"        :bHHEUUEHnk*if&       ",
"       +5PPLIGGILLH<6h=       ",
"       +5PEKSDDSKEJ<-g=       ",
"        :bEFgAAgFEbo=d&       ",
"        +5HN9aa9NH5. &        ",
"         :rr:$$:rr:           ",
"        +:k5+  +5k:+          ",
"       :wmHk:  :vLb5:         ",
"      :zPPz<:  :5bPPz:        ",
"      :wy5:+    +:wuw:        ",
"       +++        +++         "
};
