/* XPM */
static char *e83c30eeb1ed429bb70e5f6f2c1ee47erGRVUv7foasVOgmg[] = {
/* columns rows colors chars-per-pixel */
"30 33 171 2 ",
"   c #3D1B59",
".  c #391D59",
"X  c #381F59",
"o  c #0F394A",
"O  c #16344D",
"+  c #10394A",
"@  c #133B4D",
"#  c #133E4D",
"$  c #143C4E",
"%  c #20344F",
"&  c #31215A",
"*  c #32215A",
"=  c #32225A",
"-  c #342159",
";  c #37225A",
":  c #36235A",
">  c #3A225A",
",  c #3B245A",
"<  c #3F255A",
"1  c #3C235D",
"2  c #203A51",
"3  c #5E0A54",
"4  c #5A0D55",
"5  c #4D1357",
"6  c #441858",
"7  c #511156",
"8  c #531056",
"9  c #571055",
"0  c #5F1456",
"q  c #521C51",
"w  c #5B1857",
"e  c #78014F",
"r  c #79024F",
"t  c #7E034D",
"y  c #611A4C",
"u  c #6D1849",
"i  c #741747",
"p  c #6F0552",
"a  c #6E0653",
"s  c #660D54",
"d  c #730052",
"f  c #740052",
"g  c #720653",
"h  c #710853",
"j  c #750857",
"k  c #700D54",
"l  c #621155",
"z  c #6E1857",
"x  c #701055",
"c  c #442455",
"v  c #42235A",
"b  c #43245A",
"n  c #43275A",
"m  c #47245A",
"M  c #45275A",
"N  c #4F2459",
"B  c #4C275A",
"V  c #452A59",
"C  c #47285A",
"Z  c #49295A",
"A  c #4A295A",
"S  c #4B295A",
"D  c #4E295A",
"F  c #4E2A5D",
"G  c #5E2453",
"H  c #512159",
"J  c #52265A",
"K  c #5F275A",
"L  c #51295A",
"P  c #57295A",
"I  c #502A5C",
"U  c #542B5E",
"Y  c #5A295A",
"T  c #5D295A",
"R  c #792E48",
"E  c #672150",
"W  c #6B275A",
"Q  c #6C2459",
"!  c #62295A",
"~  c #672959",
"^  c #64285A",
"/  c #65295A",
"(  c #6B295A",
")  c #6C295B",
"_  c #6C2A5B",
"`  c #6D2B5D",
"'  c #6F2D5F",
"]  c #702C5F",
"[  c #552E60",
"{  c #5E2C61",
"}  c #5C2A64",
"|  c #622D62",
" . c #652D64",
".. c #642C66",
"X. c #6B2E66",
"o. c #6D2F66",
"O. c #782163",
"+. c #722C61",
"@. c #742E64",
"#. c #762E66",
"$. c #762F66",
"%. c #623368",
"&. c #66356A",
"*. c #753069",
"=. c #753368",
"-. c #793068",
";. c #79316A",
":. c #7A316B",
">. c #7B316B",
",. c #78366B",
"<. c #7C326C",
"1. c #7D356E",
"2. c #773C74",
"3. c #7F3973",
"4. c #783D74",
"5. c #7A3E77",
"6. c #15404F",
"7. c #16414F",
"8. c #2A465E",
"9. c #364361",
"0. c #354562",
"q. c #344662",
"w. c #314A63",
"e. c #324C64",
"r. c #385669",
"t. c #36676A",
"y. c #3E6B70",
"u. c #3F6E71",
"i. c #42686F",
"p. c #417373",
"a. c #9D123A",
"s. c #9E133D",
"d. c #A10F3B",
"f. c #A3103A",
"g. c #A51039",
"h. c #A81238",
"j. c #B51C32",
"k. c #95303B",
"l. c #BE362D",
"z. c #AD2D37",
"x. c #BB3730",
"c. c #C6282B",
"v. c #CA3628",
"b. c #D93623",
"n. c #D33923",
"m. c #DE3921",
"M. c #DC3822",
"N. c #D23328",
"B. c #FF6B11",
"V. c #8F0943",
"C. c #8B0846",
"Z. c #8D0845",
"A. c #83054A",
"S. c #870A49",
"D. c #900943",
"F. c #970B40",
"G. c #801543",
"H. c #8F1A46",
"J. c #A01940",
"K. c #803A73",
"L. c #803B74",
"P. c #823E77",
"I. c #823F78",
"U. c #834179",
"Y. c #82417A",
"T. c #84427A",
"R. c #84427B",
"E. c #5E8381",
"W. c #5D9287",
"Q. c #5D9487",
"!. c #639C8C",
/* pixels */
"S ( ` R.R.I.;.<.o.L ( ( T S Y ,.R.R.L.<.;.#.U E.!.r.@ o a.; ",
"( S I Y.;.<.>.>.#.! S P Y S &.R.R.3.;.<.] ~ L 9.w.$ o o n.* ",
"( S F Y.>.>.>.>.#.! S P T S &.Y.R.3.<.;.' ~ L 9.w.$ o o n.* ",
";.S C ; ) ` >.>.;...* , { >.3.3.;.+.( ` L D ! L D S q.w.p.u.",
"( ( ! * * ; D ( ! n * , %.R.L.;.;.+.( ( n * K D D 0.Q.!.!.w.",
"( ) ^ * * > L ( ! n * , %.R.L.>.<.+.( ( v ; K L S 0.Q.!.!.e.",
"( ( ( M *   t d.F.s S P =.R.3.+.) ) K D > * * M S i.p.p.e.+ ",
";.;.;.Q d S.l.D L T S S S S | +.) Y < * * * n 2.R.2 8.w.+ o ",
"<.;.;.Q d S.l.S L ! S S S S | +.( P < * * * M 5.R.2 8.w.o o ",
"D S B . d g ` ;.;.#.( T < * * < S l J.N.R D 5.Y.R.o.D D D S ",
"R.R.Y.5.* ; U ;.#.! S < M ( Y 0 d V.V.r O.;.P.1.;.>.>.>.( S ",
"R.R.Y.5.* > U ;.$.! S < D ) Y 0 d V.D.r O.>.P.1.;.<.>.>.` S ",
"R.>.;.;.) ^ L ( ! E g.H.$.R.,.@.;.;. .I T ` #.;.;.( ( ( D * ",
">.>.;._ ) ) ! S n 6 d x =.R.R.3.<.+.J > n S ! ( ( ( D S * d.",
">.>.;.Q ( ( ^ S n 6 f x =.R.R.3.;.+.J ; n B ! ( ( ( D S ; d.",
">.>.;.` ( ( K * 6 3 * , P ( =.,.( P n * * * * M S S * * p M.",
">.>.>.-.) ! n . q i * * > S Y Y S , , C ! ) #.` ) > M S ;.( ",
">.>.>.;.) ! n ; q i * * > D Y Y S > , C ! ) ;.` ) > n S ;.( ",
">.>.;.-.( ^ G d.j.c.d 4 y f.C.7 * < { =.P.Y.1.;.;.1 ~ ( R.;.",
">.) ) ^ S H A.d.d.k ( T w d 7 < S K *.I.R.Y.1.` ) g J S ;.Y.",
">.) ( ^ S N t d.F.k Q T w d 7 < S Y =.5.R.R.1.` ( g B D ;.R.",
") ) ^ S * ; [ R.I.I.;.*.Y D < * * D #.Y.K.;.` ( ( s.r f B ;.",
"d g.d.p S [ R.R.P.>.;.>.} * 7 7 * < { *.] ~ D S S ; v.m.h.f ",
"d g.f.p D U R.R.P.>.>.>.} * 7 7 * < { *.] ( L S S * v.m.h.f ",
"; m.b.a.( ( _ >.>.*.Q ( z d C.C.d 5 m ^ I n ; n S ! s.g.; S ",
"( d a w.w.q.D _ ( ( ( T < * 5 x.B.z.9 X ; * n 5.R.R.j d Q R.",
"Q d p w.w.0.L ( ( ( ( K < & 5 x.B.z.9 ; X & n 2.R.R.j d ( R.",
"S o 6.u.w.w.9.S S S S n * * * u g.c.k.c n S ! ;.;.;.L D ( Y.",
"C o 6.!.!.Q.t.o % n & v T C S , * i g.g.A.a q ~ ` -.D S S ( ",
"S + 6.!.!.W.t.o % n & n T S S < * i g.g.A.a H ~ Q =.D S S ( ",
"( o o 6.p.y.8.o % B S T +.( Y S S l 9 X * * * C S ! ; * S S ",
"=.S C o o o O * n +.,.#.( ( ( Y S , , M o.=.F ; * * * * S ! ",
">.S C o o o O * n o.-.#.( ( ( Y S > , C X.$.U ; * * * & C ( "
};
