/* XPM */
static char *_7ded17e7cc04480c6af934a99194227f6v0j7JNhnaZYd7R[] = {
/* columns rows colors chars-per-pixel */
"30 30 213 2 ",
"   c None",
".  c black",
"X  c #9D1515",
"o  c #813C00",
"O  c #904F09",
"+  c #995500",
"@  c #A45F16",
"#  c #886000",
"$  c #A57E0A",
"%  c #BC7A0E",
"&  c #B26D1A",
"*  c #AB6A1A",
"=  c #A26223",
"-  c #BE6C21",
";  c #B37324",
":  c #C4700B",
">  c #C46E1B",
",  c #C27619",
"<  c #C87C26",
"1  c #AB8503",
"2  c #B1800F",
"3  c #BB9A0F",
"4  c #A78516",
"5  c #BD8E19",
"6  c #BA9D18",
"7  c #BF8621",
"8  c #B8902C",
"9  c #BC8939",
"0  c #BFA32D",
"q  c #CC8E03",
"w  c #D38508",
"e  c #C59203",
"r  c #C79308",
"t  c #C18E12",
"y  c #C68B1C",
"u  c #CC951C",
"i  c #C79716",
"p  c #D4941B",
"a  c #D99916",
"s  c #DB8A1B",
"d  c #E08919",
"f  c #E19D18",
"g  c #CDA214",
"h  c #DBA01A",
"j  c #E1A11A",
"k  c #C88E2C",
"l  c #DF8E20",
"z  c #CB9522",
"x  c #CB9A2C",
"c  c #C69725",
"v  c #D49123",
"b  c #D19E27",
"n  c #D19D2B",
"m  c #DB9527",
"M  c #C28432",
"N  c #CC9B33",
"B  c #C59835",
"V  c #D19E32",
"C  c #E08E20",
"Z  c #E6992A",
"A  c #F19A25",
"S  c #E69C33",
"D  c #CBA528",
"F  c #DCA62E",
"G  c #D4A529",
"H  c #CEB62C",
"J  c #D4B42F",
"K  c #CCAB35",
"L  c #CBA33D",
"P  c #C6A73A",
"I  c #D6A434",
"U  c #DAA434",
"Y  c #DBAC37",
"T  c #D6AB3B",
"R  c #DBAC3A",
"E  c #CEB536",
"W  c #D5B13D",
"Q  c #D9B738",
"!  c #E6A52C",
"~  c #EAAC2B",
"^  c #E6B62F",
"/  c #E1AC3D",
"(  c #E9A13B",
")  c #E3B337",
"_  c #E3B33E",
"`  c #E5BB3E",
"'  c #EAB635",
"]  c #EFCF23",
"[  c #EED82B",
"{  c #E7C338",
"}  c #EDD337",
"|  c #F2D138",
" . c #F9CB3A",
".. c #BA9647",
"X. c #D29F48",
"o. c #CD9547",
"O. c #D9A848",
"+. c #DCBD43",
"@. c #D2B442",
"#. c #DCAB54",
"$. c #D0B350",
"%. c #CCB554",
"&. c #E4AF47",
"*. c #EBB246",
"=. c #E6BD40",
"-. c #E9BE42",
";. c #EABF4C",
":. c #E1AB51",
">. c #E9BE58",
",. c #F3B148",
"<. c #D3B663",
"1. c #E1B868",
"2. c #DDCE43",
"3. c #DAC447",
"4. c #DAC55A",
"5. c #DBD65E",
"6. c #E5C342",
"7. c #E9C344",
"8. c #E4CB45",
"9. c #EDCB44",
"0. c #ECCC4B",
"q. c #E6C749",
"w. c #F1C949",
"e. c #ECD344",
"r. c #EBD54E",
"t. c #EDDB4E",
"y. c #E9D946",
"u. c #F3D949",
"i. c #E7C756",
"p. c #F5CC5A",
"a. c #E5D451",
"s. c #ECD452",
"d. c #EDDB55",
"f. c #ECD75D",
"g. c #ECDB5B",
"h. c #F4DD55",
"j. c #F5D65B",
"k. c #F1DD5A",
"l. c #F3E34C",
"z. c #FBE44A",
"x. c #EDE25C",
"c. c #EEE155",
"v. c #F1E25D",
"b. c #F6E358",
"n. c #F3F35B",
"m. c #D2C361",
"M. c #DBD36D",
"N. c #DCCC7E",
"B. c #E2C963",
"V. c #EBD662",
"C. c #EFDB62",
"Z. c #E2DC6C",
"A. c #F2DB61",
"S. c #F4DC6B",
"D. c #E5D975",
"F. c #FBDD7D",
"G. c #EEE463",
"H. c #EEEA6D",
"J. c #F1E463",
"K. c #F6EB65",
"L. c #F1E66C",
"P. c #FFEC6E",
"I. c #F4F363",
"U. c #F4FC63",
"Y. c #FBF56B",
"T. c #F4FA6D",
"R. c #FAFD6D",
"E. c #FAFA66",
"W. c #EEE875",
"Q. c #F1E771",
"!. c #F4E971",
"~. c #FDEB74",
"^. c #FCFD75",
"/. c #FEF37C",
"(. c #FAFC7D",
"). c #F7FC7C",
"_. c #ECF46A",
"`. c #E2CD83",
"'. c #E1D284",
"]. c #E8DB89",
"[. c #EBD89E",
"{. c #F4D899",
"}. c #E9E187",
"|. c #F0EE8D",
" X c #FBFE82",
".X c #F6FC8D",
"XX c #FCFD8D",
"oX c #F8F884",
"OX c #F3ED96",
"+X c #F9FF93",
"@X c #FBFE9C",
"#X c #F5F593",
"$X c #F3DBAB",
"%X c #F2E8A8",
"&X c #FBFDA4",
"*X c #F3FCAB",
"=X c #FCFFAB",
"-X c #F4F9A4",
";X c #ECE6BF",
":X c #F4EDB7",
">X c #FCFDB4",
",X c #FEFFB9",
"<X c #FBF6B8",
"1X c #EAE2A5",
"2X c #E8DFC1",
"3X c #F6EDC6",
"4X c #FEFDC5",
"5X c #FBFFCA",
"6X c #FCFBD5",
"7X c #FCFCDD",
"8X c #F9F4DB",
"9X c #FDFDE3",
"0X c #F3F1E8",
/* pixels */
"                      ;X<X|.D.Z.}.<X                        ",
"                8XOXE.I.8.+.8.8.+.2.b.b.}.                  ",
"            0XOX^.d.u a w d l s d w m c a.z.D.              ",
"          6X(.S.t p , ! { h f h j U , > Z 9 a.G.            ",
"        9XI.A.q p ^ G w.e.0.w.0.0.s.6.' 7 - v +.u.          ",
"        Y.D a ' G r.r.s.0.r.w.0.7.9.6.q.9.w.o ,.4 b.        ",
"      /.p.p { ) j.O O { 9. .7.9.7.7.7.7.=.q.Q ; *.J g.      ",
"    @XL.t { ` x.y.O O O O O ;.7.7.7.6.6.-.*.7.@.O &.e.M.    ",
"    /.y Y D J.v.h.f.O $.-X<.O ,.` 7.-.7.` ` ` 7.u.& L y.3X  ",
"  *Xa.n V.x.v.v.k.r.O $X*X@XO O Y ` ` -.` ` &.Q 8..._ 8.`.  ",
"  ).z D D K.G.v.c.d.O [.>X@X.XO O ) ) ` ` ' _ R R /.9 8 l.  ",
"7XY.u ~.J.L.J.v.k.h.s.9.O <X XoXoXO O F _ / / R Y <.= 1.e.2X",
"4Xa.5 {.H.Q.G.x.b.k.t.4.O <X&X X XR.R.O F / / R U -.1.@.E %X",
">X3.&.N Q.L.J.J.J.k.O O 4X=X@XXX).^.E.E.O I T T U E V.V +.D.",
"-Xi.:.6 !.L.J.J.v.d.O 7X>X&X+XXX).^.Y.. o.O I U I K ~./ F.4.",
"@XB.O.3 Q.L.G.G.G.g.O 9X=X=X+XXX XR.U.. O.O I I n L P.T A.m.",
"&X3.O.P L.O O C.G.f.O 9X>X=X@X.X#X* X ^.j.O n U V P s.c Q N.",
"4X2.y 1XQ.O O O C.g.O 7X=X=X@X+XXXX X ^.O x N I D W #.N H %X",
"6Xn.u 3XG.L.L.O x.f.O 6X=X=X@X+X X>.M.s.O x I x N Q @ #.e.  ",
"  T.5 X.z W.L.O O V.O O >X=X@X+X(.R.r.O x V V N N u.% $ e.  ",
"  *Xr.b [.c.J.O O O O 4X,X=X@X+X).R.<.O N V V k G M ! 6.'.  ",
"    n.5 >.x G.J.O O O O >X=X@X+X X^.U.O O n N N ,., B }     ",
"    -Xa.e [.+.k.g.O O 5X,X=X@X X).(.U.%.k O x ~ + ( } '.    ",
"      T.@.v L.6.g.V.O 4X>X=X@XXX X..I.Q.O N ~ k ! 8 e.      ",
"      9X!.4 a 0.i i.O 4X>X=X@XXX).R.O O i ~ < A # ]         ",
"          n.K g z e.U O 4X=X&X.X(.oXg f O : S i |           ",
"            _.A.y p k O O O O O O O O O O 8 e.y.            ",
"              |.K.2.% b e f j v f r m 1 { [ ].              ",
"                8XOXK.d.E W i.0.H H e.l.'.                  ",
"                        :X}.D.P L L L                       "
};
