/* XPM */
static char *b4031548db914372b42fc92704f73552fycVPzg0I7ADosr5[] = {
/* columns rows colors chars-per-pixel */
"30 33 11 1 ",
"  c None",
". c black",
"X c #980000",
"o c #D03700",
"O c #9F6800",
"+ c #D8B001",
"@ c #F8F003",
"# c #F88057",
"$ c #485890",
"% c #B8C8F0",
"& c #F8F8F8",
/* pixels */
"                              ",
"    o                         ",
"    o         ........        ",
"    o         ........        ",
"    ooo      .oo####oo.       ",
"  ooo##    ..o########o..     ",
"  ooo##    ..o########o..     ",
"  oo###o   ..##########..     ",
"  ##@##o  .oo##########oo.    ",
"  ##@##o  .oo##########oo.    ",
"  ##@##o  .&&.########&...    ",
"  ##&##   ....########....    ",
"  ##&##   ....########....    ",
"  ..#..   .$$.########.$$.    ",
"  ..o..   .##############.    ",
"  ..o..   .##############.    ",
"  ..o..   .oo##########oo.    ",
"  ..ooo...#..o########oooX..  ",
"  ..ooo...#..o########oooX..  ",
"    .oo.##oXX.XXooooXX.##o..  ",
"    .oo.oo.ooo........ooo###. ",
"    .oo.oo.ooo........ooo###. ",
"     ..X...ooo+++OOOOOO..ooo. ",
"       ...X##o++@+++++Ooo...  ",
"       ...X##o++@+++++Ooo...  ",
"        ..o###XX+@@+++O##.    ",
"          .oo#ooXOOOOOXXX.    ",
"          .oo#ooXOOOOOXXX.    ",
"        ..XXXX......%%.%%.    ",
"        ..&oo&..    .. ..     ",
"        ..&oo&..    .. ..     ",
"          ....                ",
"                              "
};
