/* XPM */
static char *_20252ef6b6244b4f06b8613cc4ed162uA55c3IRZlw466l0[] = {
/* columns rows colors chars-per-pixel */
"30 33 82 1 ",
"  c None",
". c black",
"X c #000B0B",
"o c #130500",
"O c #160B08",
"+ c #001717",
"@ c #001D1D",
"# c #370000",
"$ c #390F00",
"% c #3C1E14",
"& c #002323",
"* c #092321",
"= c #002E2E",
"- c #003A3A",
"; c #450000",
": c #4D0300",
"> c #5E1900",
", c #6E0000",
"< c #721E00",
"1 c #442318",
"2 c #5A2E20",
"3 c #6D3421",
"4 c #703A27",
"5 c #654200",
"6 c #004646",
"7 c #980000",
"8 c #9B0300",
"9 c #9D0500",
"0 c #910B08",
"q c #A10B08",
"w c #AC1400",
"e c #AE1600",
"r c #B11900",
"t c #AA1710",
"y c #922903",
"u c #972800",
"i c #BC2300",
"p c #BD3200",
"a c #BD3E0B",
"s c #C43400",
"d c #CB3200",
"f c #D03700",
"g c #D43E08",
"h c #9F6800",
"j c #A76A08",
"k c #884630",
"l c #B44E2B",
"z c #DB4B18",
"x c #DE5224",
"c c #D55137",
"v c #DE5D3F",
"b c #E25827",
"n c #E65F30",
"m c #E96537",
"M c #ED6C3F",
"N c #BF6243",
"B c #BA726D",
"V c #CA6847",
"C c #E56643",
"Z c #E66847",
"A c #EF6F43",
"S c #F17348",
"D c #F4794F",
"F c #E97852",
"G c #F67C52",
"H c #C39601",
"J c #DBAC09",
"K c #D8B001",
"L c #DEBC01",
"P c #F8D616",
"I c #F8F003",
"U c #F28947",
"Y c #F88057",
"T c #485890",
"R c #888888",
"E c #9F9F9F",
"W c #B4B4B4",
"Q c #EDC6B8",
"! c #F8DCD3",
"~ c #F8E2DA",
"^ c #F4E7E2",
"/ c #F8F8F8",
/* pixels */
"                 ......       ",
"                 <<kkk<       ",
"                $zzYYYz$$     ",
"              ..fYYYYYYff.    ",
"              ..MYYYYYYMM.&&  ",
"              >>YYYYYYnYY4>>  ",
"    f        .ffYYYYYYfYYYff. ",
" a  f        .ffYYYYOO^YYYDDpX",
" f  f        .ffYYYB..EYYYYYx.",
" ffff        .ffYYYT...YYYYYY.",
" fAYf       .fYYYYYfTT.YYYYYf.",
" fAYf       .fYYYYYfTT.YYYYYf.",
"fYPIY       .fYYYYYYYYYYYYff7.",
"YIIIY     .sfYYYYYYYYYfff7... ",
"YIIIY     .sfYYYYYYYYYZZf7.   ",
"YIIIY     .FYfYYfYYYYYYYYf.   ",
" G!/Y    .fGY7YYfYYKhh....    ",
" VQ~V    .fCZtYYfUULhh.++     ",
" .NG.    .f97YYYfKKIhh.       ",
" .VY.    .f77YffYKKKhh.       ",
" .lm2    #fwwciimKKH55=       ",
" XypD%OO0qfdd999gJJjoo        ",
"  @.fSYYYYf97fffYYYYff.       ",
"   6>34bbbf:;rffbYYYnn<  R    ",
"    &&&uuuu*&,uuuMMYvvf11W&   ",
"       ....  ....ffY77fYY.    ",
"                 $$zvvM11     ",
"                  -<kkk-      ",
"                   ....       ",
"                              ",
"                              ",
"                              ",
"                              "
};
