/* XPM */
static char *_cbdb9dba51f438993ab131ce6b7037cDxXV6nSoustR9P4b[] = {
/* columns rows colors chars-per-pixel */
"30 33 92 1 ",
"  c None",
". c black",
"X c #0D0401",
"o c #000D0D",
"O c #130500",
"+ c #150600",
"@ c #190D09",
"# c #001818",
"$ c #270A00",
"% c #2D0C00",
"& c #3F1100",
"* c #311409",
"= c #30231B",
"- c #002626",
"; c #411203",
": c #4F1500",
"> c #491404",
", c #4C1C08",
"< c #541600",
"1 c #681B00",
"2 c #4B261A",
"3 c #733019",
"4 c #75331C",
"5 c #5D3020",
"6 c #7C402B",
"7 c #004040",
"8 c #004C4C",
"9 c #005959",
"0 c #A91100",
"q c #912600",
"w c #A92D00",
"e c #AE2E00",
"r c #A5350D",
"t c #BB3100",
"y c #B93102",
"u c #B5261A",
"i c #D03700",
"p c #D13802",
"a c #D33C06",
"s c #D43E09",
"d c #B44017",
"f c #AA5235",
"g c #AD593D",
"h c #B95D3D",
"j c #BB5D3D",
"k c #D44604",
"l c #D44A00",
"z c #D74510",
"x c #DA4916",
"c c #DC4D1A",
"v c #DF5222",
"b c #D0582E",
"n c #E05523",
"m c #E15524",
"M c #E15D21",
"N c #E25827",
"B c #E45B2B",
"V c #C5603D",
"C c #E76031",
"Z c #EA6638",
"A c #EC6A3D",
"S c #C46543",
"D c #CF6B49",
"F c #DC714B",
"G c #DF734E",
"H c #CD7256",
"J c #E96B40",
"K c #F07246",
"L c #F07247",
"P c #F17347",
"I c #F17449",
"U c #F2764B",
"Y c #F3764C",
"T c #F0784E",
"R c #F3784F",
"E c #F4784E",
"W c #F4794E",
"Q c #F4794F",
"! c #F77F56",
"~ c #F8A23E",
"^ c #F9D51F",
"/ c #F8F003",
"( c #F9C92B",
") c #F89547",
"_ c #F88057",
"` c #F18767",
"' c #E4977C",
"] c #BCB0C9",
"[ c #B8C8F0",
"{ c #DFDFDF",
"} c #F8E4DE",
"| c #F8F8F8",
/* pixels */
"                              ",
"                              ",
"           o.......9          ",
"         -.tv____Bp&-         ",
"         -.tv____Bp&-         ",
"        .qiE_______cq.7       ",
"        .fU!_______Ef.7       ",
"        .g__________g.7       ",
"       .iA__________Ai1o      ",
"       .ZE__________EZ4o      ",
"       .______________6o      ",
"       .______________6o      ",
"       .CY__________YC3o      ",
"       .iA__________Ai1o      ",
"        :V_________Cd:$o      ",
"        %j_KY______Nr%*=      ",
"      o.pA_sv_______ApBG.-    ",
"     8,<vK_sv_______KnBb.-    ",
"     .ti___sv_________Bt.-    ",
"   ..i!!_cipv_______g..o      ",
"    #wJI)Mzpv_______j$Oo      ",
"     .ti/~!kv_______Ai1o      ",
"     .;>/^(kv_______Ai1o      ",
"     ...///lv_______Ai1o      ",
"    .[`_|GiR_______cc!Bt.     ",
"    .]HD}SeY_______cxUmt.     ",
"    .i+._2.G_______ciiit.     ",
"     ..._2.G_____Bi0u!Bt.     ",
"     ..._2.G!!!!_Bi0u_Bt.     ",
"      o._2.tn!!!_6.qc_6o      ",
"       .iA!@5!_!a1.qii'{.     ",
"       .iA_@5!_Ea1.qii'{.     ",
"        %%____ctX7 -...o      "
};
