/* XPM */
static char *b8a7f2890c914af986a0066479416f49AccMbcLH9QRguIO7[] = {
/* columns rows colors chars-per-pixel */
"30 33 165 2 ",
"   c #2A0021",
".  c #330324",
"X  c #3B0425",
"o  c #530C1F",
"O  c #6C0C1E",
"+  c #760D1E",
"@  c #61131C",
"#  c #6B161A",
"$  c #77141E",
"%  c #7B111B",
"&  c #70191E",
"*  c #400425",
"=  c #4C0424",
"-  c #4F0C26",
";  c #430929",
":  c #520423",
">  c #5C0423",
",  c #560B24",
"<  c #580824",
"1  c #571126",
"2  c #541037",
"3  c #630221",
"4  c #690620",
"5  c #660921",
"6  c #6A0B21",
"7  c #620B2A",
"8  c #6B0E28",
"9  c #651624",
"0  c #6E1A22",
"q  c #6E1C29",
"w  c #731421",
"e  c #7B1620",
"r  c #761B21",
"t  c #7C1C20",
"y  c #7C2121",
"u  c #7D2A2E",
"i  c #642136",
"p  c #62253E",
"a  c #6C283D",
"s  c #7E2C34",
"d  c #742C3D",
"f  c #7D2D3A",
"g  c #3E2156",
"h  c #3A215A",
"j  c #47214E",
"k  c #4F234D",
"l  c #552246",
"z  c #592445",
"x  c #4A2556",
"c  c #43245A",
"v  c #4A265A",
"b  c #4D285A",
"n  c #542752",
"m  c #542957",
"M  c #582A56",
"N  c #53295A",
"B  c #5B2B59",
"V  c #602645",
"C  c #662845",
"Z  c #6D2B44",
"A  c #642B4E",
"S  c #6A2C4B",
"D  c #702B46",
"F  c #632C52",
"G  c #632F5A",
"H  c #67305A",
"J  c #6B315A",
"K  c #8B1916",
"L  c #82151B",
"P  c #821A1B",
"I  c #8C1D1A",
"U  c #84221D",
"Y  c #8B251B",
"T  c #8F281F",
"R  c #902517",
"E  c #9B2311",
"W  c #962916",
"Q  c #9B2B14",
"!  c #92261A",
"~  c #9C211B",
"^  c #942919",
"/  c #992B1A",
"(  c #A3270D",
")  c #A42C0E",
"_  c #AC2E0C",
"`  c #B53107",
"'  c #B3310A",
"]  c #BA3409",
"[  c #A12C13",
"{  c #A92E14",
"}  c #A22C1C",
"|  c #AA281C",
" . c #B12D17",
".. c #A4311D",
"X. c #AC3319",
"o. c #B23213",
"O. c #BD3515",
"+. c #BB3A15",
"@. c #B5361A",
"#. c #BA3519",
"$. c #B63B1B",
"%. c #BB391B",
"&. c #822321",
"*. c #8E2C25",
"=. c #832B2C",
"-. c #932E25",
";. c #9A2E20",
":. c #92302D",
">. c #842D31",
",. c #A43320",
"<. c #B33F24",
"1. c #C0370A",
"2. c #C4390C",
"3. c #CC3C0D",
"4. c #D13F0F",
"5. c #C03714",
"6. c #C33B15",
"7. c #CB3E12",
"8. c #C13718",
"9. c #C73E1C",
"0. c #D3400F",
"q. c #C64111",
"w. c #CB4113",
"e. c #C4401E",
"r. c #CB451A",
"t. c #D64210",
"y. c #DC4512",
"u. c #D44913",
"i. c #DE4B15",
"p. c #D3431A",
"a. c #D85018",
"s. c #E24713",
"d. c #E44914",
"f. c #EC4C16",
"g. c #E64B1A",
"h. c #F24F18",
"j. c #E2571B",
"k. c #E75B1D",
"l. c #EF5D1E",
"z. c #F65219",
"x. c #F8571B",
"c. c #F45C1E",
"v. c #F95D1F",
"b. c #F0601F",
"n. c #C74A22",
"m. c #D3492A",
"M. c #DA4B29",
"N. c #C75026",
"B. c #E45822",
"V. c #E96527",
"C. c #ED6424",
"Z. c #E76428",
"A. c #F26222",
"S. c #F16723",
"D. c #F06624",
"F. c #FB6121",
"G. c #FB6422",
"H. c #FC6723",
"J. c #F56924",
"K. c #F66B25",
"L. c #F86A25",
"P. c #FD6A24",
"I. c #FD6C26",
"U. c #FE7228",
"Y. c #FF7329",
/* pixels */
"c J c c c c B c c B B B B B B B B B B B c c B c c B c c c c ",
"J c c J B J B J B B J c B B + B c B J B c B B B J B B c J c ",
"J J J c c c J B B B c c + + y.+ + + c c c c B c J B c J c c ",
"J c c c J c c B B c B $ y.[ y.[ [ y.+ c + c c c c B c c J c ",
"c M G J J J F A A ] $.$ + 8 [ y.w + e -.+.+ k x h b J v x c ",
"J v c H J G f ....C.V.r.8.&.M.m.8.O.$.B.C.;./ a h h b m G G ",
"c B b c M Z 7.f.D.Y.H.0.] + y.y.2.] 2.i.L.K.l.6./ m H H J J ",
"J H G h N D 7.d.F.a.r.P # : ~ } / ! I ~ <.b.v.0.` x J J J J ",
"c J J v Z s ] 3.p.` [ o X @ L I e r L L Y p.r.] ) p H H H J ",
"J J H S w.+.X.` / 2.2.% 3 5.4.1.O 3 4.3.2.Y W X.;.q.Z M B H ",
"J G N -.K.A.7.' g.h.d.L 3 Y ] 2., - ] ] 7._ ` i.g.K.X.>.N N ",
"c D y Z.Y.P.t.' z.t.X.O O o ; > .   6 &.6.0.0.0.z.z.Y.n.V N ",
"J C y Z.F.x. .L d./ U < = X . .     < O ^ 0.6.#.s.z.Y.N.V N ",
"B z t B.f.y.I < 2.9 , X .           * < r 2.o.^ 2.d.G.n.z v ",
"c l y r.@.X.# X [ = X               . ; 9 [ Y & [ #.d.@.l c ",
"J V y _ y 0 ; ; y 3 =                 ; > y & 9 y y ] [ z b ",
"c B g 7 O O ~ y.z.y 9 .             - 4 t y.6.W ' ` 5 2 v b ",
"J S i } E K | f.z.[ P : : X X X X X O E o.f.g.@.Y ' w q k g ",
"c :.7.d.2. .#.z.z.3.} w r ; 9 9 9 9 % ] 1.d.g.%.y 2.9.9.=.i ",
"c ,.z.f.2. .@.g.z.d.8.^ ^ , y Y ! ! P ` ] @.#.X.y 2.g.h...y ",
"J | z.y.` ) X.7.z.z.t.] ' 6 &.[ ] ' Y ] 3.y Y W U ` 0.d.,.y ",
"c -.7.` ' ' R r O.7.w.0.t.P ] 3.4.7.T 7.4.r t W _ ` ` ] -.q ",
"J a *._ ' _ t 5 9 ! o.2.] $ 4.4.1.' $ T ' 5 $ Q U ' ` [ p j ",
"c p ) R f.y.O.O.> - 1 O + 4 ! L + + O r $ ( _ 7.6.d.U W p h ",
"c z Q ..F.c.s.0.I 9 & O O # ^ R w # + W $ ` ] y.g.b.X...z c ",
"J l y r.Y.I.d.y.] R Q % 3 ^ ] ] ! Y % ` W 1.2.d.z.Y.d.$.V N ",
"c C Y V.Y.I.f.y.y.] ] % 4 y.t.2.` ` W ` ] 4.s.f.v.U.I.n.V N ",
"c p _ S.Y.Y.v.h.h.4.2.Y r f.y.t.] ` ` ] 3.t.d.b.I.Y.x.e.V N ",
"J p ` f.Y.Y.Y.Y.z.z.y.! y I.h.s.] ' W t.h.z.z.b.Y.Y.y.2.d N ",
"c k Z +.c.G.Y.Y.z.z.s.! y P.z.f.] ' / 4.b.G.c.c.Y.G.] ..n c ",
"c B c s y.i.k.l.z.g.y.I w j.z.h.3.+.^ 3.c.G.B.u.j.y.=.a c c ",
"J H B N -.-.X.3.d.#.{ + 3 { 9.#.2.2.Y Q 9.d.u./ *.-.h h N B ",
"c J J N B v u ` ] U & 3 3 $ 6 6 _ ' y y &.] _ p g M h c B J "
};
